<?xml version="1.0" standalone="no"?><!DOCTYPE svg PUBLIC "-//W3C//DTD SVG 1.1//EN"
        "http://www.w3.org/Graphics/SVG/1.1/DTD/svg11.dtd">
<svg t="1531377688088" class="icon" style="" viewBox="0 0 1024 1024" version="1.1" xmlns="http://www.w3.org/2000/svg"
     p-id="2417" xmlns:xlink="http://www.w3.org/1999/xlink" width="200" height="200">
    <defs>
        <style type="text/css"></style>
    </defs>
    <path d="M120.832 491.52h53.248v40.96h-53.248l47.104 47.104c8.192 8.192 8.192 20.48 0 28.672-8.192 8.192-20.48 8.192-28.672 0l-96.256-96.256 96.256-96.256c8.192-8.192 20.48-8.192 28.672 0 8.192 8.192 8.192 20.48 0 28.672l-47.104 47.104z m176.128-61.44h-40.96v-266.24c0-34.816 26.624-61.44 61.44-61.44h573.44c34.816 0 61.44 26.624 61.44 61.44v266.24h-40.96v-266.24c0-12.288-8.192-20.48-20.48-20.48h-573.44c-12.288 0-20.48 8.192-20.48 20.48v266.24z m-40.96 163.84h40.96v266.24c0 12.288 8.192 20.48 20.48 20.48h573.44c12.288 0 20.48-8.192 20.48-20.48v-266.24h40.96v266.24c0 34.816-26.624 61.44-61.44 61.44h-573.44c-34.816 0-61.44-26.624-61.44-61.44v-266.24z m-61.44-61.44v-40.96h102.4v40.96h-102.4z m122.88 0v-40.96h102.4v40.96h-102.4z m122.88 0v-40.96h102.4v40.96h-102.4z m122.88 0v-40.96h102.4v40.96h-102.4z m122.88 0v-40.96h102.4v40.96h-102.4z m122.88 0v-40.96h102.4v40.96h-102.4z m122.88 0v-40.96h61.44v40.96h-61.44z"
          p-id="2418"></path>
</svg>